<?xml version="1.0" standalone="no"?>
<!DOCTYPE svg PUBLIC "-//W3C//DTD SVG 1.1//EN" "http://www.w3.org/Graphics/SVG/1.1/DTD/svg11.dtd" >
<!--
2013-9-30: Created.
-->
<svg>
<metadata>
Created by iconfont
</metadata>
<defs>

<font id="iconfont" horiz-adv-x="1024" >
  <font-face
    font-family="iconfont"
    font-weight="500"
    font-stretch="normal"
    units-per-em="1024"
    ascent="896"
    descent="-128"
  />
    <missing-glyph />
    
    <glyph glyph-name="x" unicode="x" horiz-adv-x="1001"
d="M281 543q-27 -1 -53 -1h-83q-18 0 -36.5 -6t-32.5 -18.5t-23 -32t-9 -45.5v-76h912v41q0 16 -0.5 30t-0.5 18q0 13 -5 29t-17 29.5t-31.5 22.5t-49.5 9h-133v-97h-438v97zM955 310v-52q0 -23 0.5 -52t0.5 -58t-10.5 -47.5t-26 -30t-33 -16t-31.5 -4.5q-14 -1 -29.5 -0.5
t-29.5 0.5h-32l-45 128h-439l-44 -128h-29h-34q-20 0 -45 1q-25 0 -41 9.5t-25.5 23t-13.5 29.5t-4 30v167h911zM163 247q-12 0 -21 -8.5t-9 -21.5t9 -21.5t21 -8.5q13 0 22 8.5t9 21.5t-9 21.5t-22 8.5zM316 123q-8 -26 -14 -48q-5 -19 -10.5 -37t-7.5 -25t-3 -15t1 -14.5
t9.5 -10.5t21.5 -4h37h67h81h80h64h36q23 0 34 12t2 38q-5 13 -9.5 30.5t-9.5 34.5q-5 19 -11 39h-368zM336 498v228q0 11 2.5 23t10 21.5t20.5 15.5t34 6h188q31 0 51.5 -14.5t20.5 -52.5v-227h-327z" />
    

    
    <glyph glyph-name="rmb" unicode="&#59147;" d="M974.59465393 579.36814528c-25.24177152 59.67758048-61.37266687 113.26820736-107.38869905 159.28424064-46.01488752 46.01603328-99.60666016 82.14692864-159.28424064 107.38755328-61.7978704 26.13802352-127.429456 39.39155808-195.07130496 39.39155807S379.57582784 872.17796384 317.7791032 846.03994032c-59.67758048-25.24062463-113.26820736-61.37152-159.28424064-107.38755328s-82.14692864-99.60666016-107.38755327-159.28424064c-26.13802352-61.79672464-39.39155808-127.42830912-39.39155809-195.07130496 0-67.64299584 13.2523888-133.27458032 39.39155809-195.07130496 25.24062463-59.67758048 61.37152-113.26820736 107.38755327-159.28424064 46.01603328-46.01488752 99.60666016-82.14578176 159.28424064-107.38755328 61.79672464-26.13802352 127.42830912-39.39041232 195.07130496-39.39041232s133.27343456 13.2523888 195.07130496 39.39041232c59.6764336 25.24177152 113.26820736 61.37266687 159.28424064 107.38755328 46.01603328 46.01603328 82.14692864 99.60666016 107.38869904 159.28424064 26.13802352 61.79672464 39.39041232 127.42830912 39.39041232 195.07130496C1013.98506625 451.93983616 1000.73153168 517.57142176 974.59465393 579.36814528zM512.85040816-70.99255312000003c-251.04697296 0-455.28939344 204.24242048-455.28939344 455.28939344s204.24242048 455.28939344 455.28939344 455.28939344c251.04811872 0 455.29054032-204.24242048 455.29054031-455.28939344S763.89852687-70.99255312000003 512.85040816-70.99255312000003zM634.47714528 642.10123696l-81.63003632-150.40652704c-21.76907936-40.7611512-35.08221136-67.85502415-39.94627167-81.28276688l-1.39022241 0c-14.36067024 32.65247328-54.88228591 109.8803272-121.57630801 231.68929392l-76.76597487 0 142.7654592-245.2362304L338.87427409 396.86500543l0-54.18774703 137.20800575 0 0-74.68235936L338.87427409 267.99489903999995l0-54.88343168 137.20800575 0 0-108.72390928 68.08195296 0 0 108.72390928 132.34623696 0 0 54.88343168L544.16308704 267.99489903999995l0 74.68235936 132.34623696 0 0 54.18774703-113.58682384 0 144.15339008 245.23623041L634.47714528 642.10123696z"  horiz-adv-x="1024" />

    
    <glyph glyph-name="horn" unicode="&#58900;" d="M511.219 825.517l-227.213-227.313-161.038 0c-41.846 0-75.781-33.935-75.781-75.781l0-303.097c0-41.882 33.935-75.782 75.781-75.782l161.037 0 227.213-227.377c41.845 0 75.748 33.934 75.748 75.78l0 757.789c0.001 41.846-33.901 75.781-75.746 75.781zM511.219-5.427l-198.83 219.372-189.421 0 0 303.093 189.421 0 198.83 219.402 0-741.868zM960.31 337.605c7.483 0 13.534 14.892 13.534 33.239s-6.051 33.239-13.534 33.239l-94.755 0c-7.482 0-13.533-14.889-13.533-33.239 0-18.347 6.051-33.239 13.533-33.239l94.755 0zM970.582 767.156c6.484 3.743 4.277 19.663-4.897 35.552s-21.858 25.759-28.341 22.017l-82.059-47.376c-6.483-3.743-4.277-19.663 4.897-35.552s21.859-25.758 28.342-22.016l82.058 47.375zM970.582-25.47c6.484-3.743 4.277-19.662-4.897-35.553-9.174-15.888-21.858-25.759-28.341-22.016l-82.059 47.376c-6.483 3.743-4.277 19.662 4.897 35.552 9.174 15.889 21.859 25.758 28.342 22.016l82.058-47.375zM640.286 200.588c-6.756 18.186-4.889 35.436 13.299 42.194 45.93 21.204 67.853 62.464 73.459 114.215 6.541 60.379-22.355 115.869-72.24 138.725-16.317 10.496-23.073 28.677-12.579 44.995 10.497 16.316 28.683 23.073 44.995 12.579 73.893-42.911 118.17-117.522 108.828-203.777-7.477-69.002-49.452-134.269-113.569-162.23-14.983-8.481-35.07-2.914-42.193 13.294z"  horiz-adv-x="1024" />

    
    <glyph glyph-name="ok" unicode="&#58898;" d="M32 308.4l314.429-312.461 645.571 648.806-127.306 127.311-519.878-519.874-185.914 183.96-126.903-127.743z"  horiz-adv-x="1024" />

    
    <glyph glyph-name="edit" unicode="&#58923;" d="M819.529607 534.905942c20.308535-43.699268 31.665187-92.39841 31.665187-143.755078 0-188.631148-152.929018-341.56119-341.56119-341.56119S168.073438 202.51766899999996 168.073438 391.14984c0 188.631148 152.929018 341.560166 341.56119 341.560166 51.780317 0 100.857059-11.544941 144.830573-32.166607l52.058656 52.868091c-58.503439 31.861662-125.58116 49.967018-196.889229 49.967018-227.669256 0-412.228669-184.5369-412.228669-412.227646 0-227.646744 184.559413-412.229692 412.228669-412.229692 227.669256 0 412.228669 184.582949 412.228669 412.229692 0 71.110571-18.002003 138.01126-49.694819 196.394972L819.529607 534.905942zM332.964906 214.48011799999995l141.334959 47.111994L827.640332 591.375048l-47.110971 47.111994L450.744379 308.704107l-23.556509 23.556509L756.970806 662.04355l-47.111994 47.111994L380.0769 355.815077 332.964906 214.48011799999995zM812.986587 654.727934l39.797401-39.797401 39.772842 39.797401 19.898189 19.874653c32.964786 32.987299 32.964786 86.402859 0 119.390157-32.964786 32.94125-86.403882 32.94125-119.366621 0l-19.875676-19.875676-39.796378-39.796378 39.796378-39.796378L812.986587 654.727934zM840.890101 748.951923c7.338129 7.314593 19.208481 7.314593 26.545586 0 7.313569-7.314593 7.313569-19.184945 0-26.546609l-13.274328-13.249769-26.524097 26.546609L840.890101 748.951923z"  horiz-adv-x="1024" />

    
    <glyph glyph-name="star" unicode="&#58886;" d="M511.64413456 885.79595872c-276.56380865 0-500.77707343-223.90954769-500.77707344-500.12494112 0-276.2131008 224.2132648-500.13067104 500.77707344-500.13067104 276.5718312 0 500.79082704 223.91413184 500.79082704 500.13067104C1012.43381584 661.88526528 788.21711264 885.79595872 511.64413456 885.79595872zM511.64413456-68.66596368c-251.24754144 0-454.92951728 203.42181103-454.92951728 454.33468975 0 250.92892384 203.68197696 454.33812816 454.92951728 454.33812816 251.2452488 0 454.92951728-203.40920432 454.92951728-454.33812816C966.57136032 134.75813888000005 762.88938337-68.66596368 511.64413456-68.66596368zM828.8510464 473.30319552c-5.42106655 15.66837328-19.36914 27.14086368-36.15610992 29.63134496l-163.37468224 24.28592096-71.0343144 147.36018528c-7.4531072 15.47697424-23.4492664 25.37930304-41.0419464 25.37930304-17.56975808 0-33.57393984-9.90232992-41.04767632-25.37930304l-71.0102456-147.35789376-163.39302-24.28706784c-16.78238575-2.49162816-30.73504224-13.96411855-36.13204113-29.63134496-5.40960559-15.70046465-1.32031087-32.99745008 10.53268609-44.81377152l119.7253512-119.49842352-27.77007408-165.74826128c-2.81712144-16.67694336 4.43083424-33.4364072 18.61271216-43.21151968 7.79579248-5.33854721 16.9531544-8.05824992 26.11624736-8.05824992 7.52645824 0 15.0758384 1.83949472 21.94214064 5.49556337l142.42506655 76.65251103 142.44569585-76.65251103c6.86515648-3.65492176 14.412244-5.49556337 21.92609552-5.49556337 9.17799232 0 18.31472496 2.71970273 26.13343936 8.05824992 14.17614689 9.77511247 21.40347216 26.53228256 18.60354271 43.21151968l-27.78153503 165.74826128 119.74368897 119.49842352C830.1702104 440.30574544 834.23658432 457.60158512 828.8510464 473.30319552L828.8510464 473.30319552zM666.13422752 339.8085632c-10.04215408-10.014648-14.60478992-24.09108352-12.28622304-37.9222536l27.76892832-165.76659904-142.42965072 76.62729649c-6.84338033 3.68242896-14.39505312 5.51390112-21.94214064 5.51390112-7.52874977 0-15.0827152-1.83147216-21.91807296-5.51390112L352.88022464 136.12085520000005l27.77924352 165.76889168c2.31627424 13.82887856-2.23833904 27.90760673-12.28163887 37.91996208L248.65935376 459.28406368l163.37009808 24.32259648c14.92455216 2.22229392 27.78382768 11.5504256 34.20544176 24.8635576l71.0102456 147.34528593 71.03316864-147.34528593c6.42276096-13.31313199 19.25796768-22.64126368 34.18939664-24.8635576l163.39072735-24.32259648L666.13422752 339.8085632 666.13422752 339.8085632z"  horiz-adv-x="1024" />

    
    <glyph glyph-name="kid" unicode="&#58906;" d="M768.43179364 800.60678144L630.95059251 800.60678144c-18.66225223 0-18.64859163-15.01971646-18.64859162-15.01971646l0-52.92916372c0-28.00641881-4.88072443-51.27741744-14.65459356-69.80802605-9.77014329-18.53557723-21.81423165-32.12088298-36.12233151-40.76957666-14.31182572-8.6437263-30.02204645-12.76936677-47.12321177-12.35580913-17.09247207 0.40734751-32.80269403 5.14773629-47.11948591 14.20998884-14.31058295 9.0560424-26.3459793 22.64507278-36.11612258 40.77454405-9.7838039 18.11705219-14.66328678 40.76336652-14.66328678 67.94888017l0 51.58044376c0 0-2.25283277 20.40093324-20.91384347 20.40093324-38.77754561 0-118.9791565 1.7784213-131.02572916 1.77842131-15.97723261 0-34.06944666-6.74111306-43.49557934-15.58478726-9.42240685-8.83870683-162.5579435-148.99871866-176.06004038-162.9516304-13.50209687-13.95291173-22.82887699-39.42085669-17.400467-57.69066481 5.42344139-18.28098443 64.88135119-182.81481526 70.95307226-199.18200892 6.06923677-16.3734038 23.37159274-18.71565437 29.95498371-13.05128202 6.5796639 5.66561511 89.05273678 74.77195935 89.05273678 74.77195935L217.56809974 30.900325940000016c0-17.30359751 6.45671473-31.71353426 19.36269252-43.2422293 12.9221227-11.5460815 29.1514638-19.97744082 48.68926729-25.32636657 19.54897981-5.36507187 40.8391237-7.83772331 63.87415753-7.42540841 23.03751813 0.41852503 44.32890356 4.12067309 63.86794861 11.12755648 19.54897981 6.9969474 35.7832883 17.29738858 48.69547622 30.8876605 12.91218793 13.58903038 19.37387005 30.27291341 19.37387004 50.03674449L481.43151073 186.56812632000003c0 24.70665209 3.31218702 42.41138817 9.94028568 53.13035316 6.6318245 10.7028213 14.13671473 16.05795718 22.50970453 16.0579572 8.38416611 0 15.88160588-4.73542141 22.51343038-14.20998884 6.63306604-9.46960005 9.95022044-22.44512487 9.95022043-38.91539816l0-160.6193146c0-19.76507263 6.45671473-36.24155485 19.37262729-49.41206141 12.91715531-13.18168288 29.14152903-23.06359781 48.68429869-29.65195617 19.54276966-6.59456729 40.8391237-9.68072548 63.87291599-9.26840938 23.03006644 0.40734751 44.32021034 4.12067309 63.87415753 11.11637894 19.54276966 6.99570586 35.7671446 17.29738858 48.6842987 30.89138636 12.91218793 13.59027314 19.37262729 30.67529353 19.37262729 51.2662399L810.20607966 411.71733102c0 0 77.44207682-55.6315698 88.86272364-63.10044558 11.41692219-7.46266563 36.88735145 3.52703829 41.67244792 17.80284712 4.7850977 14.28077742 55.83151772 171.25258885 60.77309717 191.62619965 4.94778838 20.37982094-8.58411403 48.35767577-17.81402465 58.18618857-9.22618478 9.82230388-152.97657181 151.29253569-164.50899148 161.89227736C807.65891258 788.73407579 791.6667766 801.31343065 768.43179364 800.60678144L768.43179364 800.60678144zM904.54813113 411.79929714l-134.54904162 98.63907707c0 0-13.40150155 2.96817642-13.40150154-11.86028536l0-460.11077609c-5.96491681-5.45821552-13.9305579-9.97505858-23.71808765-13.44248461-14.36398509-5.07073756-30.62685878-7.80543348-48.35270837-8.1159127-1.06680471-0.02235506-2.13733527-0.02607969-3.20413999-0.02607968-16.1448919 0-30.99322322 2.21681831-44.1376489 6.59829312-9.29821613 3.09236714-20.85423241 7.11492918-26.63410347 11.99689636L610.55090081 184.91638002000002c0 35.4628743-8.63627461 65.62153177-25.67037717 89.65258172-19.60983362 27.65744082-42.30085685 42.89573441-71.04373161 42.89573441-30.31389647 0-51.88471284-17.20548647-71.48957908-48.43964189-15.64439954-24.96248642-23.24740202-57.88191949-23.24740202-100.67333271l0-128.61268878c-5.96864266-5.46815029-19.83834553-9.97505858-29.63084387-13.43751721-14.3590177-5.0769477-30.61940709-7.81661101-48.34401394-8.13205763-1.38846026-0.0211123-2.76077682-0.03228982-4.12315739-0.03228983-16.90991062 0-32.54189109 1.91379077-46.47617482 5.68051848-7.58934065 2.0541264-14.17397316 4.72300112-19.43472386 7.8712559L271.09089826 531.30750877c0 18.53060983-17.5581903 10.05578316-17.5581903 10.05578317l-124.67954454-105.01630878-53.67555443 142.67737339 173.58738895 158.11934071 101.56502767 2.34225057c0.3862352-41.70846359 7.07022029-69.80181712 23.76155378-100.35167717 16.36843642-29.96740278 34.43084371-53.12538578 59.5212467-68.80704376 24.25707876-15.16626224 50.98432466-23.20641897 79.41796296-23.88077833 1.26675263-0.02607969 2.5136357-0.04346736 3.76548496-0.04346736 27.53821749 0 53.52155697 7.18075039 77.23591877 21.32491803 25.81443986 15.40595166 47.33309565 39.00854181 63.97723716 70.18308493 15.84434745 29.64823033 18.4300145 56.54437706 19.38256327 96.8407838l107.7013284 0L954.50787689 570.41292008l-49.95601993-158.61362294L904.54813113 411.79929714 904.54813113 411.79929714 904.54813113 411.79929714z"  horiz-adv-x="1024" />

    
    <glyph glyph-name="user" unicode="&#58903;" d="M668.89886703 357.64692907000006c72.086519 49.8693425 119.38418354 133.01142545 119.38418353 227.28860881C788.28305056 737.51292547 664.57738757 861.21858845 512 861.21858845c-152.57738757 0-276.28305056-123.70566298-276.28305056-276.28305057 0-94.27718336 47.29766454-177.41926634 119.38418353-227.28860881-157.61469491-58.67137423-270.07920892-210.02920321-270.07920891-388.08476098L85.02192406-93.21858844999997l75.63914628 0 0 62.78075654c0 187.25527167 151.80853541 339.06380709 339.06380709 339.06380708l24.81536659 0c187.25527167 0 339.06380709-151.80853541 339.06380709-339.06380708L863.60405111-93.21858844999997l75.34751269 0 0 62.78075654C938.97807594 147.61772585999995 826.48704978 298.97555482999996 668.89886703 357.64692907000006zM512 384c-110.97983396 0-200.93553788 89.95570393-200.93553788 200.93553788 0 110.97983396 89.95570393 200.93553788 200.93553788 200.93553789 110.97983396 0 200.93553788-89.95570393 200.93553788-200.93553789C712.93553788 473.95570393 622.97983396 384 512 384z"  horiz-adv-x="1024" />

    
    <glyph glyph-name="eval" unicode="&#58888;" d="M517.17276703 880.10207105c-274.61073223 0-498.00094734-224.51853292-498.00094734-500.51705671 0-275.99262667 223.38923226-495.4799237 498.00094734-495.4799237 274.60483509 0 497.99603307 219.48729703 497.99603308 495.4799237 0 276.00147236-223.38923226 500.51705671-497.99603308 500.51705671zM517.17178419-64.71665501999996c-246.77234088 0-446.8207273 200.04936929-446.82072732 446.82072729s200.04936929 446.82269302 446.82072732 446.82269302 446.82269302-200.04936929 446.82269301-446.82269302-200.04936929-446.8207273-446.82269301-446.82072729zM352.99564771 391.16992886c0-21.83412878 17.70023972-39.5343685 39.53436848-39.5343685s39.5343685 17.70023972 39.5343685 39.5343685c0 21.83412878-17.70023972 39.5343685-39.5343685 39.5343685-21.83412878 0-39.5343685-17.70023972-39.53436848-39.5343685zM455.98511511 391.16992886c0-21.83412878 17.70023972-39.5343685 39.53436851-39.5343685s39.5343685 17.70023972 39.5343685 39.5343685c0 21.83412878-17.70023972 39.5343685-39.5343685 39.5343685-21.83412878 0-39.5343685-17.70023972-39.53436851-39.5343685zM558.97654825 391.16992886c0-21.83412878 17.70023972-39.5343685 39.53436849-39.5343685s39.5343685 17.70023972 39.53436851 39.5343685c0 21.83412878-17.70023972 39.5343685-39.53436851 39.5343685-21.83412878 0-39.5343685-17.70023972-39.53436849-39.5343685zM508.46270405 651.32974073c-180.89253812 0-327.53748599-116.5636809-327.53748599-260.35146865s146.64298217-260.35245149 327.53748599-260.35245149c29.88862733 0 58.83371367 3.19919375 86.34579707 9.16315924 5.74577164-19.39173356-0.4304906-49.05233848-39.57663127-93.54324587 90.7460399-9.67719253 160.91993713 143.17350322 160.91993712 143.17350322l-0.44326769-0.04422848c73.42026803 47.74317532 120.29165076 120.31917071 120.29165076 201.60129768 0.00098286 143.78680489-146.64298217 260.35146865-327.53650313 260.35146863zM508.45877263 187.31789272000003c-150.74640271 0-272.94872404 91.18341048-272.94872404 203.66136222 0 112.48188316 122.20330418 203.66037938 272.94872404 203.66037937s272.94872404-91.18242763 272.94872404-203.66037937c0-112.48188316-122.20330418-203.66136222-272.94872404-203.66136222z"  horiz-adv-x="1024" />

    
    <glyph glyph-name="up" unicode="&#58954;" d="M512.133 496.483l-292.16-292.155c-12.27-12.28-32.186-12.28-44.457 0-12.281 12.27-12.281 32.186 0 44.457l314.388 314.388c12.27 12.28 32.186 12.28 44.457 0l314.387-314.388c6.14-6.136 9.211-14.183 9.211-22.228s-3.071-16.092-9.211-22.228c-12.27-12.28-32.186-12.28-44.457 0l-292.159 292.155z"  horiz-adv-x="1024" />

    
    <glyph glyph-name="down" unicode="&#58955;" d="M512.133 271.019l-292.16 292.155c-12.27 12.28-32.186 12.28-44.457 0-12.281-12.27-12.281-32.186 0-44.457l314.388-314.388c12.27-12.28 32.186-12.28 44.457 0l314.387 314.388c6.14 6.136 9.211 14.183 9.211 22.228s-3.071 16.092-9.211 22.228c-12.27 12.28-32.186 12.28-44.457 0l-292.159-292.155z"  horiz-adv-x="1024" />

    
    <glyph glyph-name="quan" unicode="&#58944;" d="M517.17899146 880.11386532C242.56662181 880.11386532 19.17804412 655.5930394 19.17804412 379.59680859c0-275.99623079 223.3885767-495.48483797 498.00094734-495.48483796 274.61237064 0 498.00094734 219.50957541 498.00094734 495.48483796C1015.1799388 655.5930394 791.7913621 880.11386532 517.17899146 880.11386532z m0-944.82003624c-246.76742661 0-446.81908888 200.05166228-446.81908888 446.81908889s200.05166228 446.81908888 446.81908888 446.81908889 446.81908888-200.05166228 446.81908987-446.81908889-200.05166228-446.81908888-446.81908987-446.81908889zM601.74123457 168.47426508c12.97893052 5.72414883 19.49984763 43.94804401 19.49984763 114.60878188h-114.46200914c-12.11926046-52.60765311-36.3997159-92.04766751-72.82039906-118.29907594a465.89958561 465.89958561 0 0 0-117.04102027-61.62371236c-10.39991841 18.09502022-26.02076474 33.69489833-46.82060255 46.82060255 65.88013005 14.80310981 111.84106156 33.65296284 137.86182631 56.69633085 25.99979651 23.00143349 40.71903633 48.45607266 44.2206222 76.4058549-43.36095117 0-77.18165497-0.8387028-101.44114315-2.45320665v32.03845901c-27.76107308-18.09502022-61.58177686-34.51263387-101.44114217-49.31574369-6.94026803 16.41761365-17.36115466 32.85619455-31.19975621 49.31574369 43.31901667 9.85476203 81.48000816 23.79820082 114.44104092 41.89322103 32.91909729 18.05308474 57.22052095 36.12713673 72.84136631 54.22215697h-78.041326c-31.22072346 0-63.32208617-0.8387028-96.24118346-2.45320665V450.67689835c32.91909729-1.65643835 65.88013005-2.47417389 98.84116379-2.47417389h101.44114218a180.84536108 180.84536108 0 0 1 26.02076474 61.62371137h-85.84126505c-34.70134207 0-67.62043935-0.85967103-98.84116281-2.4741739V551.74062509c31.22072346-1.65643835 64.13982172-2.45320664 98.84116281-2.45320664h96.24118346c8.65961008 52.56571861 12.99989874 96.93311354 12.99989875 133.08121752 17.31921918-3.31287767 38.11905698-6.58381985 62.46241514-9.85476105-6.96123626-8.24025818-12.16119497-24.63690458-15.5998781-49.29477644a1134.91209924 1134.91209924 0 0 0-13.020866-73.93168003h150.86172407A1788.53441121 1788.53441121 0 0 1 759.12387576 551.74062509v-44.3673959a1663.79828912 1663.79828912 0 0 1-91.04122474 2.47417486h-161.26164248a368.46325019 368.46325019 0 0 0-20.7998378-61.62371235h215.90315132c29.48041513 0 60.70113859 0.81773555 93.66217136 2.47417389v-44.36739492a1814.59711143 1814.59711143 0 0 1-93.66217136 2.45320665H647.24087872c19.08049574-31.22072346 43.78030306-53.8237733 74.12038824-67.76721209 30.34008517-13.98537426 64.58014085-25.05625549 102.74113331-33.27554643-15.59987811-14.78214256-26.90140302-31.22072346-33.77876831-49.29477644-38.16099246 9.85476203-76.34295217 27.90784678-114.46200914 54.22215696-3.48061764-82.19290646-6.10156523-132.70380209-7.8209063-151.57462238s-11.30152493-31.61910809-28.5788096-38.20292696c-17.36115466-6.54188436-44.2206222-11.46926489-80.64130536-14.78214256-3.52255311 19.70952308-11.30152493 39.44001441-23.42078441 59.14953748 31.1997562-4.94834876 53.32055142-4.52899687 66.34141742 1.21612018zM306.51773434 635.52706715c17.31921918 8.21929094 32.05942723 17.25631645 44.2206222 27.11107848a799.93407191 799.93407191 0 0 0 59.82050031-78.85906154c-20.82080505-6.58381985-36.42068315-14.80310981-46.82060156-24.65787184-8.70154458 18.07405199-27.76107308 43.52869212-57.22052095 76.4058549z m132.6618666-313.02497404h221.08214377c-22.56111436 16.39664639-46.79963431 45.16416321-72.86233355 86.26061694h-122.24098095c-27.76107308-34.51263387-58.98179751-62.46241515-93.64120312-83.78644206 26.04173199-1.65643835 48.56091087-2.47417389 67.66237385-2.47417488z m231.48206219 349.99081358c12.11926046-8.24025818 28.6207441-18.09502022 49.42058189-29.56428511-10.39991841-8.24025818-21.70144333-19.70952308-33.8207038-34.51263291-12.16119497-14.78214256-25.99979651-32.038459-41.59967461-51.74798306a178.76957084 178.76957084 0 0 1-44.22062221 27.11107848c39.88033353 42.68998932 63.25918343 72.27524169 70.22041873 88.7138226z"  horiz-adv-x="1024" />

    
    <glyph glyph-name="agent" unicode="&#58890;" d="M517.12 808.96c-152.576 0-276.48-123.904-276.48-276.48s123.904-276.48 276.48-276.48 276.48 123.904 276.48 276.48S669.696 808.96 517.12 808.96zM517.12 307.20000000000005c-124.416 0-225.28 100.864-225.28 225.28s100.864 225.28 225.28 225.28 225.28-100.864 225.28-225.28S641.536 307.20000000000005 517.12 307.20000000000005zM514.56 307.20000000000005c-203.776 0-371.2-150.528-389.632-343.04l55.296 0c29.696 166.4 169.472 291.84 337.408 291.84 167.424 0 306.688-125.952 336.896-291.84l50.176 0C885.76 156.67200000000003 718.336 307.20000000000005 514.56 307.20000000000005zM814.08 733.696l0-62.464c37.888-39.424 61.44-95.232 61.44-157.184 0-79.36-38.912-148.48-97.28-186.88l0-41.984c81.408 20.992 143.36 116.224 143.36 231.424C921.6 614.4 877.056 697.856 814.08 733.696zM778.24 320.51199999999994l0-43.008c107.008-24.064 188.416-155.136 189.44-313.344l0 0 46.08 0 0 0 0 10.24C1013.76 154.11199999999997 910.848 302.08000000000004 778.24 320.51199999999994zM153.6 513.5360000000001c0 61.44 23.552 117.248 61.44 156.672L215.04 732.16c-62.976-35.84-107.52-119.296-107.52-216.064 0-114.688 61.952-209.92 143.36-230.912l0 41.984C192.512 365.05600000000004 153.6 434.176 153.6 513.5360000000001zM15.36-25.600000000000023l0-10.24 0 0 46.08 0 0 0c1.024 157.696 82.432 288.256 189.44 312.832l0 43.008C118.272 301.05600000000004 15.36 153.60000000000002 15.36-25.600000000000023z"  horiz-adv-x="1024" />

    
    <glyph glyph-name="shoes" unicode="&#58882;" d="M915.723971 195.09767599999998c-27.746948 24.430412-60.060911 43.671639-92.067882 61.85886-34.040281 19.342534-78.573543 53.385884-119.591749 47.02399-2.830465-0.164752-5.756097-0.883113-8.735965-2.130524-2.217505-0.795109-4.209882-1.76725-5.975085-2.923586-124.147508-70.940702-201.599508 80.177064-257.719666 164.413584-40.048111 60.118216-81.526805 119.27964-125.792984 176.37808-27.741831 35.782971-63.163575 88.905866-108.272959 104.610546-31.9292 11.117199-65.216327-28.644387-82.682118-50.081629-46.488801-57.062624-56.750515-127.643122-47.164183-198.87649 6.193049-45.99966 27.418466-90.212628 38.809911-135.226844 25.323758-100.087533 32.709983-204.269313 34.461883-307.149449 0.261966-15.31787 12.579503-28.069289 28.084639-28.084639 30.43415-0.034792 58.122769-0.065492 88.557942-0.098237 15.307637-0.017396 25.343201 12.787234 25.343201 28.084639 0 97.459682 0 194.918341 0 292.38007 27.823696-15.507182 44.600801-40.196491 59.528791-58.418504 48.317449-58.991556 70.13229-133.896546 121.91977-190.287881 70.021773-76.246545 164.246785-75.055416 258.449283-71.594595 65.12116 2.39556 193.697537 0.01535 230.828202 67.757197C974.947817 131.49407900000006 943.597809 170.55674699999997 915.723971 195.09767599999998zM886.129956 106.45582300000001c-63.36926-31.259958-152.466484-26.328645-221.239823-26.399253-17.21508-0.019443-34.45779 0.187265-51.659567 0.923022-64.549132 2.755764-118.059859 54.920844-146.299017 109.246123-33.744545 64.911382-67.826781 128.824017-122.462123 178.881087-20.032242 18.349927-51.040467 40.533159-79.111802 44.436048-17.72571 2.467191-38.030152-7.033184-38.030152-27.081799 0-101.814874 0-203.63384 0-305.45076-9.274224 0.01228-21.083178 0.024559-32.109302 0.036839-2.550079 118.484531-9.480932 250.163573-55.293327 359.456768-30.617321 73.043596-31.04404 162.26771 22.878057 224.177735 7.098675 8.150634 15.187911 15.679098 23.863501 22.181185 8.383948-5.510504 15.611559-13.33675 22.62837-20.369933 89.850377-90.056062 158.568459-206.179826 226.918149-312.746934 60.781318-94.77862 169.359222-165.489078 278.82024-104.810091 15.007809 1.092891 46.341445-22.198581 58.207703-28.439726 17.435091-9.165754 34.502815-19.002796 51.364855-29.169343 23.485901-14.157441 46.161343-29.774117 65.612347-49.194422C910.281005 122.10319800000002 909.49613 117.97927400000003 886.129956 106.45582300000001z"  horiz-adv-x="1024" />

    
    <glyph glyph-name="bao" unicode="&#58942;" d="M699.709183 612.60634c54.649468 0.219802 167.986038 9.013277 197.40169-14.00012 23.586002-18.453558 9.39128-80.290687 16.800144-114.800983 0-10.732492 0-21.467784 0-32.200276 1.869016-8.712275-0.844207-23.139398 1.400012-33.600288 8.565273-39.925542-1.584814-90.264373 7.00006-130.201115 2.153218-10.014286-0.376603-23.934605 1.400012-32.200276 4.70264-21.880787-1.526013-45.669791 2.800024-65.800563 4.68864-21.820587-1.533013-45.622191 2.800024-65.800563 0-10.732492 0-21.467784 0-32.200276 3.613431-16.910745 6.641657-73.251427-1.400012-85.400731-6.913259-10.445489-22.640994-19.006563-36.400312-22.400192-51.794843 0-103.606487 0-155.40133 0-201.114522 0-402.290644 0-603.405165 0-15.716535 3.928434-33.482687 14.088321-39.200336 28.00024-5.255645 12.789109-0.729406 38.58853 0 51.800443 1.722015 31.174067-2.024417 65.006756 4.200036 93.800803 2.163019 10.010086-0.386403 23.934605 1.400012 32.200276 0.466204 21.931188 0.933808 43.869376 1.400012 65.800563 4.370837 20.118172-1.948817 43.939376 2.800024 65.800563 1.794815 8.265671-0.772807 22.19439 1.400012 32.200276 8.663274 39.886341-1.615614 90.311973 7.00006 130.201115 0 9.800084 0 19.600168 0 29.400252 1.544213 27.592836-0.467604 65.897164 12.600108 82.600707 12.89971 16.487941 40.205544 16.800144 70.000599 16.800144 43.396171 0 86.804943 0 130.201115 0-0.320603 32.435478-4.832841 84.968127 1.400012 113.400971 0.466204 7.466264 0.933808 14.933928 1.400012 22.400192 18.050355 68.104983 55.276673 107.641321 116.200995 133.001139 17.794152 7.407463 62.154932 19.341166 92.400791 12.600108 10.787092-2.403821 22.911196-3.48743 33.600288-7.00006 26.145224-8.591874 48.598616-22.780995 68.600587-37.800324 11.344297-8.517673 19.754169-21.795387 28.00024-33.600288 13.545116-19.392966 23.801604-40.471546 30.800264-67.200575 0.466204-7.466264 0.933808-14.933928 1.400012-22.400192C704.572825 697.050863 699.781984 645.515022 699.709183 612.60634zM372.106378 612.60634c92.858595 0 185.74379 0 278.602385 0 0 28.463644 0 56.937087 0 85.400731-0.466204 13.99872-0.933808 28.00164-1.400012 42.00036-6.171253 23.087598-17.194947 39.620339-29.400252 56.000479-4.296637 5.768049-8.342671 12.563708-14.00012 16.800144-15.15373 11.348497-32.401877 21.05058-51.800443 28.00024-14.481724 5.187044-39.595139 8.253071-57.400491 4.200036-12.468507-2.837824-21.382383-1.617014-32.200276-5.600048-44.489581-16.38434-76.877458-51.125638-89.600767-99.400851C366.790533 709.216967 371.929977 649.442055 372.106378 612.60634zM162.104581 563.605921c-7.466264-176.850914-14.933928-353.753628-22.400192-530.604542 18.417158-6.046652 50.005628-1.400012 71.400611-1.400012 51.794843 0 103.606487 0 155.40133 0 172.184674 0 344.419748 0 516.604422 0 1.19001 3.427229 1.454612 8.657674 1.400012 14.00012-4.67464 7.684666 0.789607 23.447401-1.400012 33.600288-4.335837 20.104172-3.046426 47.84541-4.200036 68.600587 0 9.800084 0 19.600168 0 29.400252-6.546456 30.34946 0.939408 67.582779-5.600048 98.000839 0 10.732492 0 21.467784 0 32.200276-4.335837 20.104172-3.046426 47.84541-4.200036 68.600587 0 9.800084 0 19.600168 0 29.400252-4.250436 19.706569 1.815816 42.999968-2.800024 64.400551-5.752649 26.675828-4.095035 64.413151-4.200036 93.800803-50.551633 5.730249-109.322736 1.416812-162.40139 1.400012 0-20.531176 0-41.069352 0-61.600527 13.697717-4.446438 28.948048-26.84383 22.400192-50.400431-5.693849-20.486375-30.294859-42.949568-60.200515-33.600288-18.940762 5.920651-43.552973 29.984057-32.200276 60.200515 3.047826 8.113069 10.610691 17.082946 16.800144 22.400192 1.400012 0.466204 2.800024 0.933808 4.200036 1.400012 0 20.531176 0 41.069352 0 61.600527-92.858595 0-185.74379 0-278.602385 0 0-20.531176 0-41.069352 0-61.600527 49.09562-24.224407 11.866502-107.221318-46.200396-81.200695-16.847744 7.550265-35.847307 39.434138-21.00018 64.400551 3.49583 5.87865 18.324757 15.582133 19.600168 18.200156 0 20.064972 0 40.135544 0 60.200515C271.486117 565.134734 212.586213 569.42297 162.104581 563.605921zM341.306115 485.205249c-1.502213-1.052809-1.324411-0.842807-4.200036-1.400012-11.074095-13.601116-13.946919-12.142304-8.400072-32.200276 7.784067-5.010643 11.316297-8.461672 25.200216-8.400072 3.48743 3.024026 10.021286 4.557039 12.600108 8.400072C378.672435 469.733717 362.677298 485.906655 341.306115 485.205249zM668.908919 485.205249c-5.573448-4.803441-23.644802-13.718717-14.00012-28.00024 3.099627-10.46649 12.538507-14.355723 26.600228-14.00012 9.056678 7.224062 16.664343 8.573673 16.800144 25.200216C690.0659 479.085797 688.88429 485.559452 668.908919 485.205249z"  horiz-adv-x="1024" />

    
    <glyph glyph-name="radio" unicode="&#58962;" d="M527.520485-18.841880999999944c-56.630788 0-111.578238 11.095709-163.316599 32.980135-49.962925 21.131273-94.829785 51.381228-133.354194 89.905636-38.524408 38.523385-68.77334 83.391269-89.905636 133.353171-21.883403 51.739385-32.979112 106.685811-32.979112 163.316599s11.095709 111.578238 32.979112 163.316599c21.132296 49.962925 51.381228 94.829785 89.905636 133.354194s83.392292 68.77334 133.354194 89.905636c51.738361 21.883403 106.685811 32.979112 163.316599 32.979112s111.578238-11.095709 163.316599-32.979112c49.961902-21.132296 94.829785-51.381228 133.353171-89.905636 38.524408-38.524408 68.774363-83.391269 89.905636-133.354194 21.884426-51.738361 32.980135-106.685811 32.980135-163.316599s-11.095709-111.578238-32.980135-163.316599c-21.131273-49.961902-51.381228-94.829785-89.905636-133.353171-38.523385-38.524408-83.391269-68.774363-133.353171-89.905636C639.098723-7.746172000000001 584.151273-18.841880999999944 527.520485-18.841880999999944zM527.520485 758.8708300000001c-95.667873 0-185.608302-37.255509-253.254981-104.902188S169.363316 496.381533 169.363316 400.71366s37.255509-185.608302 104.902188-253.254981 157.588131-104.902188 253.254981-104.902188 185.607278 37.255509 253.254981 104.902188c67.647703 67.647703 104.902188 157.588131 104.902188 253.254981S848.422146 586.321962 780.775466 653.969665 623.187335 758.8708300000001 527.520485 758.8708300000001z"  horiz-adv-x="1024" />

    
    <glyph glyph-name="tick" unicode="&#58891;" d="M920.399502 746.676883c-145.264892 6.356256-280.116742 58.352442-397.675837 141.741628l-10.722227 7.581489-10.687713-7.581489c-117.523143-83.390625-252.395126-135.386811-397.701722-141.741628L82.118655 746.676883 82.118655 405.334442c0-251.795452 174.674799-474.567837 424.90132-532.405451l5.919083-0.928991 4.134442 0.946248c250.125856 57.811728 424.807845 280.591304 424.807845 532.386756l0 341.342441L920.399502 746.675445 920.399502 746.676883zM512 832.001708c112.491347-77.015674 236.786347-116.102333 373.057569-126.9885L885.057569 376.93837199999996c-31.525303-371.712976-370.030438-447.704747-375.551177-448.921352l0 1.163396c0 0-339.12638 74.162549-370.911973 448.93717l0 326.875488c2.046369 0.162502 4.095615 0.320689 6.134793 0.496133C278.790125 717.008124 401.130792 756.087593 512 832.001708L512 832.001708zM262.30844 400.09844L436.515867 219.65699300000006l0.824012 0c6.10747-12.101333 18.640223-20.404732 33.120119-20.404732 14.478458 0 27.012649 8.303398 33.118681 20.404732l0.432858 0L765.978437 497.78345c9.709828 5.540872 16.263099 15.982676 16.263099 27.963211 0 17.771631-14.406554 32.178185-32.179624 32.178185-13.166941 0-24.480213-7.912244-29.463115-19.238459l-249.65417-265.280205c-0.162502 0.002876-0.322127 0.011505-0.484629 0.011505-0.805317 0-1.603445-0.033076-2.395819-0.084846L306.090388 443.351179c-5.379808 10.254855-16.122168 17.252489-28.505363 17.252489-17.771631 0-32.178185-14.407993-32.178185-32.178185C245.405401 416.181781 252.244848 405.537209 262.30844 400.09844L262.30844 400.09844z"  horiz-adv-x="1024" />

    
    <glyph glyph-name="checked" unicode="&#58977;" d="M426.50072096 153.06713391999995c0 0 272.69571168 525.67272128 586.40471681 732.54430256-38.64429857-99.13790432-24.63892144-284.73896081 0-383.68775872-152.9760904-34.9217568-467.4873672-427.3657416-569.47104593-619.20732832C299.02312848 65.90027455999996 130.32594416 184.24228015999995 10.0069112 248.98792783l165.42047648 158.12553121L426.50072096 153.06713391999995z"  horiz-adv-x="1024" />

    
    <glyph glyph-name="play" unicode="&#58933;" d="M215.70446223 854.56839111L904.8519111 463.60974223c70.99733334-40.70513777 70.99733334-141.04803555 0-181.75317333L215.70446223-109.10208c-70.99733334-40.70513777-159.98065777 10.41294223-159.98065778 90.87658667V763.6918044500001c0.94663111 80.46364445 88.98332445 131.58172445 159.98065778 90.87658666z m0 0"  horiz-adv-x="1024" />

    
    <glyph glyph-name="menu" unicode="&#58883;" d="M82 133.33333333999997c-38 0-72-32-72-70s34-72 72-72 70 34 70 72S120 133.33333333999997 82 133.33333333999997ZM82 477.33333334c-38 0-72-32-72-70s34-70 72-70 70 32 70 70S120 477.33333334 82 477.33333334ZM338 687.33333334l606 0c36 0 66 28 66 64s-30 66-66 66L338 817.33333334c-36 0-66-30-66-66S302 687.33333334 338 687.33333334ZM82 823.33333334C44 823.33333334 10 789.33333334 10 751.33333334s34-70 72-70 70 32 70 70S120 823.33333334 82 823.33333334ZM944 473.33333334L338 473.33333334c-36 0-66-30-66-66s30-66 66-66l606 0c36 0 66 30 66 66S980 473.33333334 944 473.33333334ZM944 129.33333333999997L338 129.33333333999997c-36 0-66-30-66-66s30-66 66-66l606 0c36 0 66 30 66 66S980 129.33333333999997 944 129.33333333999997Z"  horiz-adv-x="1024" />

    
    <glyph glyph-name="liuyan" unicode="&#58880;" d="M864.249-92.288h-710.094c-65.398 0-118.39 53.024-118.39 118.403v710.403c0 65.377 53.778 124.026 119.126 124.026h476.544v-59.572h-476.544c-32.655 0-59.955-31.767-59.955-64.454v-710.403c0-32.691 26.518-59.204 59.219-59.204h710.094c32.699 0 65.025 27.204 65.025 59.89v476.422h59.586v-476.421c0-65.374-59.218-119.089-124.612-119.089v0 0zM510.56 194.631c-8.624-8.667-19.461-13.001-30.669-15.165l-259.098-128.131c-29.145-13.557-52.528 12.581-41.734 41.771l128.069 259.21c2.167 11.207 6.503 22.041 15.125 30.662l460.319 460.508c23.104 23.1 60.555 23.1 83.66 0l104.64-104.661c23.106-23.147 23.106-60.631 0-83.731l-460.313-460.462zM235.691 128.932c-6.731-13.647 6.318-27.667 20.892-20.933l159.989 96.915-84.029 84.053-96.852-160.035zM385.024 320.176l62.768-62.747c11.574-11.574-18.31 18.304 20.939-20.935l334.731 334.871-105.338 103.923-333.993-334.177c11.115-11.115 9.365-9.36 20.893-20.935v0 0zM908.103 717.892l-62.766 62.798c-11.574 11.527-30.299 11.527-41.874 0l-61.25-61.323 103.125-106.135 62.766 62.794c11.531 11.531 11.531 30.294-0.001 41.868v0 0zM908.103 717.892z"  horiz-adv-x="1024" />

    
    <glyph glyph-name="liaotian" unicode="&#58976;" d="M890.25088 289.55935999999997v-94.44063999c0-5.37712-1.69344-10.19311999-4.06784-14.61936001-0.18928001-0.35952 0.0504-0.7672-0.1512-1.12-0.67312001-1.17151999-1.7752-1.8704-2.57488-2.92096-1.32944-1.75056-2.61968-3.40592-4.27503999-4.84176001-1.53664-1.33504-3.18528-2.324-4.92352001-3.32415999-1.73824-1.00688-3.41264-1.93984-5.33904-2.60735999-2.07088-0.71232-4.15519999-1.00015999-6.3336-1.27792001-1.30928-0.16351999-2.46175999-0.7672-3.81583999-0.7672-0.66192 0-1.20848 0.33376-1.85696001 0.37856-2.09664 0.11984-4.08016001 0.68544-6.14432 1.23984-2.06528 0.5544-4.06784 1.05055999-5.94384 1.99472-0.57904 0.29008001-1.2208 0.27664-1.79424 0.6048L632.23647999 289.55824000999996H449.53312c-69.54415999 0-125.91936 56.37408-125.91936 125.91936V730.27712c0 69.54415999 56.37408 125.91936 125.91936 125.91936h440.71888c69.54415999 0 125.91936-56.37408 125.91936-125.91936v-314.7984c0-69.54528-56.37408-125.92048-125.91936-125.92047999z m62.95968 440.71888c0 34.77264-28.18704 62.95968-62.95968 62.95968H449.53200001c-34.77264 0-62.95968-28.18704-62.95968-62.95968v-314.7984c0-34.77264 28.18704-62.95968 62.95968-62.95968H642.1888l0.6104-0.35952c4.65919999-0.308 9.29936-1.3664 13.61248-3.85952l170.88064-98.65744v71.39664c0 17.3824 14.09632 31.47984 31.47984 31.47984h31.47984c34.77264 0 62.95968 28.18704 62.95968 62.95968v314.7984z m-94.43952-188.87904c-17.3824 0-31.47984 14.09632-31.47984 31.47984 0 17.3824 14.09632 31.47984 31.47984 31.47984s31.47984-14.09632 31.47984-31.47984c0-17.38352-14.09632-31.47984-31.47984-31.47984z m-188.87904 0c-17.3824 0-31.47984 14.09632-31.47984 31.47984 0 17.3824 14.09632 31.47984 31.47984 31.47984 17.3824 0 31.47984-14.09632 31.47984-31.47984 0-17.38352-14.09744-31.47984-31.47984-31.47984z m-188.88015999 0c-17.3824 0-31.47984 14.09632-31.47984 31.47984 0 17.3824 14.09632 31.47984 31.47984 31.47984s31.47984-14.09632 31.47984-31.47984c0-17.38352-14.09632-31.47984-31.47984-31.47984z m-409.23792-62.95856v-314.79952c0-34.77264 28.18704-62.95968 62.95968-62.95968h31.47984c17.3824 0 31.47984-14.09632 31.47984-31.47984v-71.39664l170.88063998 98.65744c4.31200001 2.49424 8.95327999 3.55152 13.61248001 3.85952l0.61039999 0.35952h192.65680001c34.77264 0 62.95968 28.18704 62.95968 62.95968h62.95968c0-69.54415999-56.37408-125.91936-125.91936-125.91936H392.74912L181.95279999-83.98080000000004c-0.57344-0.32816-1.2152-0.31471999-1.79424-0.6048-1.876-0.94416-3.87856001-1.44144-5.94383999-1.99472-2.06528-0.5544-4.0488-1.12-6.14432-1.23984-0.64848-0.04368-1.19616-0.37856-1.85695999-0.37856-1.35295999 0-2.50656 0.6048-3.81584002 0.7672-2.1784 0.27664-4.26160001 0.56671999-6.33359999 1.27792001-1.9264 0.66751999-3.60079999 1.59936-5.33904001 2.60735999-1.73824 1.00015999-3.38688 1.99024-4.92351998 3.32415999-1.65535999 1.43584-2.94672 3.0912-4.27504001 4.84176001-0.79855999 1.05055999-1.90176 1.75056-2.57488001 2.92208-0.2016 0.3528 0.03808001 0.76272-0.1512 1.12-2.37328 4.42624-4.06784 9.24224-4.06783999 14.61936v94.44064c-69.54415999 0-125.91936 56.37408-125.91936 125.91936V478.44288c0 69.54415999 56.37408 125.91936 125.91936 125.91936h125.91936v-62.95968H134.73472c-34.77264 0-62.95968-28.18704-62.95968-62.95968z"  horiz-adv-x="1024" />

    
    <glyph glyph-name="cart" unicode="&#58881;" d="M948.89472 607.2576c-6.74304 9.31328-16.2048 15.30368-27.24352 15.30368H211.28704l101.70368-382.5408c6.30784-35.08224 33.90464-60.75904 65.43872-60.75904h364.24704c28.38528 0 58.34752 20.54144 67.80416 50.48832L952.3968 572.928c3.94752 11.12576 6.63552 15.95392 0.768 27.18208l-4.27008 7.14752z m71.30624-19.77856l-139.5456-377.40544c-16.55296-52.1984-63.07328-111.25248-111.95392-111.25248h-401.3056c-55.97696 0-112.7424 77.00992-123.78112 138.63936L137.96352 678.1952l-26.01984 134.35904H25.22112c-14.18752 0-25.22624 12.83584-25.22624 28.24192s11.03872 28.24192 25.22624 28.24192h106.43968l2.36544-0.85504 4.72576-0.85504 4.72576-1.71008 3.9424-3.42528 3.15392-3.42016 2.37056-4.28032 2.36544-5.13536 0.78848-2.57024 26.01984-151.4752h760.03328c26.8032 0 52.03456 1.7152 67.79904-23.10656 14.98624-24.82176 18.92864-56.48384 10.25024-84.72576zM258.688-15.462400000000002c0 47.06816 35.4816 85.5808 78.84288 85.5808s78.83776-38.50752 78.83776-85.5808-35.4816-85.5808-78.83776-85.5808c-43.36128 0.00512-78.84288 38.51264-78.84288 85.5808z m473.05216 0c0 47.06816 35.4816 85.5808 78.83776 85.5808 43.3664 0 78.83776-38.50752 78.83776-85.5808s-35.4816-85.5808-78.83776-85.5808c-43.3664 0.00512-78.83776 38.51264-78.83776 85.5808z"  horiz-adv-x="1024" />

    
    <glyph glyph-name="shopcart" unicode="&#58956;" d="M985.236 696.215H165.914c-0.13 0-0.256-0.01-0.39-0.01l-40.95 112.427c-4.78 13.097-17.026 23.046-30.707 23.046H34.816c-18.094 0-32.77-15.371-32.77-33.87 0-18.49 14.676-33.863 32.77-33.863h36.296l199.936-546.76c4.781-13.1 17.024-20.898 30.706-20.898h552.39c18.1 0 32.777 13.218 32.777 31.718 0 18.496-14.677 31.717-32.777 31.717H324.51l-61.871 169.866h657.05c18.1 0 32.777 15.367 32.777 33.864 0 18.498-14.678 33.869-32.777 33.869H237.968l-47.771 131.163h795.04c18.098 0 32.776 15.361 32.776 33.861-0.001 18.5-14.679 33.87-32.777 33.87z m-634.17-597.566c-20.592 0-41.06-8.665-55.622-23.547-14.56-14.885-23.034-35.805-23.034-56.849 0-21.048 8.473-41.962 23.034-56.843 14.56-14.885 35.03-23.547 55.623-23.547 20.589 0 41.057 8.661 55.618 23.547 14.561 14.881 23.038 35.795 23.038 56.843 0 21.044-8.477 41.964-23.038 56.849-14.56 14.882-35.03 23.547-55.618 23.547z m442.105 0c-20.595 0-41.06-8.665-55.619-23.547-14.56-14.885-23.04-35.805-23.04-56.849 0-21.048 8.48-41.962 23.04-56.843 14.559-14.885 35.023-23.547 55.619-23.547 20.593 0 41.057 8.661 55.619 23.547 14.56 14.881 23.037 35.795 23.037 56.843 0 21.044-8.477 41.964-23.037 56.849-14.561 14.882-35.025 23.547-55.62 23.547z"  horiz-adv-x="1034" />

    
    <glyph glyph-name="aixin" unicode="&#58930;" d="M708 776c-77.1 0-148.8-36.4-196-96.4-47.2 60-118.8 96.4-196 96.4-139 0-252-116.3-252-259.3 0-85.3 40.5-145.2 73-193.2C231.6 183.8 469.5 10 479.6 2.7a54.81 54.81 0 0 1 64.8 0c10.1 7.3 248 181.1 342.6 320.8 32.6 48.1 73.1 107.9 73.1 193.2C960 659.7 846.9 776 708 776z m133-419.7C750.9 222.6 512 48 512 48S273.1 222.6 183 356.3c-33.2 49.4-63 96.3-63 161.1C120 629.2 207.7 720 316 720c80 0 148.7-49.6 179.1-120.7v0.4h0.1c2.3-7.4 8.9-12.8 16.8-12.8s14.5 5.4 16.8 12.8h0.2C559.5 670.5 628.1 720 708 720c108.2 0 196-90.8 196-202.7 0-64.8-29.8-111.7-63-161z"  horiz-adv-x="1024" />

    
    <glyph glyph-name="jifen" unicode="&#58947;" d="M517.17899146 880.11386532C242.56662181 880.11386532 19.17804412 655.5930394 19.17804412 379.59680859c0-275.99623079 223.3885767-495.48483797 498.00094734-495.48483796 274.61237064 0 498.00094734 219.50957541 498.00094734 495.48483796C1015.1799388 655.5930394 791.7913621 880.11386532 517.17899146 880.11386532z m0-944.82003624c-246.76742661 0-446.81908888 200.05166228-446.81908888 446.81908889s200.05166228 446.81908888 446.81908888 446.81908889 446.81908888-200.05166228 446.81908987-446.81908889-200.05166228-446.81908888-446.81908987-446.81908889zM222.4167786 402.09502022l0.31451367-159.66810784c0-31.45136715 25.32883466-59.94630578 71.22686344-80.20098621 41.89322103-18.47243662 97.24762721-28.68364683 155.83104008-28.68364685 14.29988794-0.02096725 28.57880862 0.69193008 42.79482657 2.13869297v31.26265895h-0.18870821c-14.21601795-1.55160111-28.49493863-2.32740117-42.79482656-2.30643296-54.3898979 0-105.27820994 9.24670194-143.27146146 26.02076378-33.46425464 14.7611753-52.69152407 33.65296284-52.6915231 51.78991854l-0.1887082 108.84269756c10.75636756-8.68057733 24.0288445-16.58535461 39.81743081-23.50465537 41.89322103-18.45146839 97.31052994-28.68364683 155.95684555-28.68364682 14.63536984 0 29.14493323 0.6499946 43.19321119 1.88708203v21.95305426c0 3.08223399 0.12580547 6.20640344 0.2725782 9.24670194-14.11117973-1.34192467-28.68364683-1.99192025-43.50772488-1.99191927-54.45280064 0-105.40401541 9.24670194-143.39726595 25.99979652-31.13685347 13.73376332-49.9867065 31.01104801-52.43991314 47.973819l-0.18870819 102.112105c10.77733482-8.8063828 24.19658545-16.75309457 40.1948472-23.8401363 41.95612377-18.45146839 97.37343267-28.66267958 156.01974829-28.66267957 58.66728383 0 114.08459274 10.14830747 156.06168376 28.66267957 15.97729451 7.06607349 29.48041513 15.09665623 40.29968541 23.96594176v-26.41914839l3.77416407 0.06290273h27.32075393v80.59936988h-0.12580546c0 0.6499946 0.08386999 1.3628929 0.08387095 2.0128875 0 31.47233439-25.34980191 59.94630578-71.28976616 80.22195444-41.97709102 18.45146839-97.39439993 28.68364683-156.01974829 28.68364684-58.66728383 0-114.08459274-10.1692757-156.04071651-28.68364684-45.9609315-20.2756477-71.28976519-48.74961908-71.2897652-80.22195444 0-0.71289733 0-1.34192467 0.06290274-2.07579024h-0.06290274l0.27257819-152.60203338h-0.27257819c-0.04193548-1.94998476 0.08386999-3.94190501 0.27257819-5.89188879z m83.45096114 212.23382548c38.05615425 16.7740628 89.02833626 26.02076474 143.46016966 26.02076377 54.45280064 0 105.40401541-9.24670194 143.50210415-26.02076377 33.50619012-14.7611753 52.75442681-33.65296284 52.75442682-51.78991854s-19.24823669-36.9658405-52.75442682-51.81088483c-38.07712149-16.75309457-89.04930449-26.02076474-143.50210415-26.02076475-54.43183241 0-105.40401541 9.24670194-143.46016966 26.02076475-33.52715737 14.78214256-52.75442681 33.67393009-52.75442681 51.81088483s19.22726945 37.02874324 52.75442681 51.78991854zM756.81744185 435.37056665c-25.68528283 12.87409328-59.50598663 20.02403675-95.25570697 20.02403677s-69.48655414-7.12897622-95.21377246-20.02403677c-29.14493323-14.55149888-45.12222774-35.20456395-45.12222774-58.12212647v-206.46774215c0-22.93853076 16.04019724-43.57062761 45.12222774-58.14309374 25.72721833-12.89506053 59.46405116-20.0030695 95.21377246-20.0030695s69.57042412 7.10800898 95.25570697 20.0030695c29.12396598 14.57246711 45.12222774 35.22553119 45.12222772 58.14309374v206.38387118c0 22.93853076-16.01922999 43.57062761-45.12222772 58.20599744z m14.04827699-264.67373861c0-10.3579839-10.14830747-21.42886514-27.97074853-30.36105341-21.49176787-10.73540031-50.36412291-16.71116007-81.33323543-16.71115909-62.52531788 0-109.26204945 24.8675473-109.26204946 47.0722125v51.93669126c4.50802961-3.04029849 9.20476646-5.78705156 14.048277-8.24025819 25.72721833-12.87409328 59.46405116-19.98210225 95.21377246-19.98210224s69.57042412 7.10800898 95.25570697 19.98210224c4.8644778 2.41127115 9.58218287 5.15802422 14.04827699 8.24025819v-51.93669126z m0 101.90242954c0-10.4418539-10.14830747-21.51273513-27.97074853-30.36105341-21.49176787-10.75636756-50.36412291-16.71116007-81.33323543-16.71115908-62.52531788 0-109.26204945 24.8675473-109.26204946 47.07221249v54.62054062c4.50802961-3.01933125 9.20476646-5.74511607 14.048277-8.19832272 25.72721833-12.89506053 59.46405116-20.02403675 95.21377246-20.02403675s69.57042412 7.12897622 95.25570697 20.02403675c4.8644778 2.39030391 9.58218287 5.13705695 14.04827699 8.21929095v-54.64150885z m-27.97074853 74.22522646c-21.49176787-10.77733482-50.36412291-16.71116007-81.33323543-16.71116007-62.52531788 0-109.26204945 24.8675473-109.26204946 47.07221347-0.06290274 10.42088663 10.14830747 21.49176787 27.97074853 30.36105244 21.49176787 10.75636756 50.36412291 16.69019184 81.29130093 16.69019281 62.56725336 0 109.30398493-24.8675473 109.30398396-47.07221348 0-10.3579839-10.25314569-21.42886514-27.97074853-30.34008517z"  horiz-adv-x="1024" />

    
    <glyph glyph-name="more" unicode="&#58964;" d="M512 807.85964906a422.36257313 422.36257313 0 1 0-164.9777775-33.36608156 421.14619875 421.14619875 0 0 0 164.95906406 33.29122781m0 56.14035094C246.90526344 864 32.07485375 649.1134500000001 32.07485375 384S246.98011719-96 512.07485375-96s480 214.90526344 480 480S777.09473656 864 512 864zM402.82573062 642.03976594l-39.69122812-39.70994157L581.46432781 384 363.1345025 165.67017563000002l39.69122813-39.70994157L660.8654975 384 402.82573062 642.03976594z"  horiz-adv-x="1024" />

    
    <glyph glyph-name="skirt" unicode="&#58884;" d="M971.0592 24.663040000000024c-0.3968 2.5856-10.21184 64.18944-49.18784 144.46848-22.79424 46.95552-50.97216 90.82624-83.75808 130.40128-40.64768 49.06752-88.4992 91.59936-142.24128 126.44352-3.12064 2.74432-16.07936 14.83264-25.60512 34.0992-5.41952 10.9568-8.79616 22.28736-10.15552 33.94816 0.2176 0.21248 0.44544 0.41728 0.6656 0.62976l-0.832 0.8576c-2.01984 19.904 1.8432 40.75776 11.58912 62.35136 45.77024 101.376 82.46784 221.11488 80.13312 261.47328l-1.21088 20.8896-142.49472 36.79744-23.64928 6.05184-9.81504-22.34368c-10.36032-23.58784-41.48736-72.69376-71.5776-73.96096-0.39168-0.01792-0.78592-0.02304-1.1776-0.02304-22.6048 0-49.6896 26.97728-76.43392 76.19584l-11.1232 20.47232-163.712-49.04704 0.52736-21.89056c0.09728-4.02432 2.93888-99.6992 51.79392-203.2 21.89568-46.38464 38.75584-84.5696 40.20736-118.5792 0.96256-22.62784-3.42016-54.4128-46.25664-99.7248-18.0736-19.11552-38.87872-36.63872-60.9024-55.18848-38.49728-32.41984-78.30528-65.94816-112.16128-114.28864-38.77888-55.36768-61.9904-120.36096-70.9632-198.6944l-0.15872-1.37984-0.02304-1.39264c-0.0768-4.38784 0.71936-27.36896 23.87456-48.74496 34.01984-31.41376 98.58816-42.73408 191.92576-33.664 30.64064 2.9824 44.22912-4.03456 66.73408-15.64928 31.55712-16.28928 74.77504-38.59456 176.52224-38.59456 83.85792 0 145.7408 47.38304 160.9088 60.16768 10.89536 4.66944 66.9696 24.41216 171.30752-9.8816 39.8464-13.09696 67.06432-3.74272 82.88768 6.40768 37.55008 24.09728 43.9168 71.66208 44.5184 77.0048l0.43264 3.80416-0.5888 3.78368zM310.1312 792.3379199999999l76.4928 22.91456c36.3136-58.83392 76.21376-87.6672 118.86848-85.8112 54.73024 2.40384 92.5824 54.89152 110.40768 86.26176l76.27264-19.69408c-7.21152-39.4752-31.73376-123.28704-72.9344-214.53568-9.92-21.96736-14.91712-42.44992-16.56576-61.16096-65.84064-49.63584-154.12992-49.33632-206.27712 3.80416-7.08864 34.38336-22.72 69.43488-41.70496 109.65248-30.528 64.67328-41.01632 126.9504-44.55936 158.56896zM895.56224-11.72479999999996c-7.7568-4.89984-19.14112-4.93568-33.83552-0.09984-59.06176 19.41248-112.95232 26.47552-160.18432 20.992-36.55168-4.23936-55.9232-14.6432-59.43296-16.68608l-2.72384-1.58464-2.3168-2.14272c-0.51968-0.48128-52.80512-47.99488-125.47584-47.99488-87.81056 0-120.95744 17.10848-150.20032 32.20224-21.67296 11.1872-43.97824 22.70208-80.16128 22.70208a190.8224 190.8224 0 0 1-18.44736-0.92928c-78.4-7.62112-117.04064 1.7408-135.65184 10.92864-12.2624 6.05696-15.90784 12.06784-16.93952 14.54336 18.33216 150.17728 91.67104 211.93984 162.61376 271.68768 22.2848 18.76992 45.32224 38.17216 65.63328 59.65824 31.80032 33.63584 50.9056 66.28864 58.3936 100.39808 29.50912-16.8576 63.50848-25.75104 99.61216-25.75104a219.4688 219.4688 0 0 1 8.78336 0.17408c36.5824 1.4464 72.36096 11.89888 104.67584 30.16448a164.5056 164.5056 0 0 1 8.92672-21.89824c16.61184-33.59744 39.68768-52.3392 42.2656-54.36416l1.05984-0.83456 1.13152-0.73216c49.01888-31.58528 92.67968-70.18496 129.75872-114.7264 29.77792-35.77344 55.43936-75.47136 76.27008-117.99552 30.15168-61.55008 41.4336-111.52896 44.2624-125.90336-1.84832-8.70912-7.24736-25.00864-18.01728-31.808z"  horiz-adv-x="1024" />

    
    <glyph glyph-name="xiaoxi" unicode="&#58905;" d="M517.17899146 880.11386532C242.56662181 880.11386532 19.17804412 655.5930394 19.17804412 379.59680859c0-275.99623079 223.3885767-495.48483797 498.00094734-495.48483796 274.61237064 0 498.00094734 219.50957541 498.00094734 495.48483796C1015.1799388 655.5930394 791.7913621 880.11386532 517.17899146 880.11386532z m0-944.82003624c-246.76742661 0-446.81908888 200.05166228-446.81908888 446.81908889s200.05166228 446.81908888 446.81908888 446.81908889 446.81908888-200.05166228 446.81908987-446.81908889-200.05166228-446.81908888-446.81908987-446.81908889zM821.29274448 246.38978463c-13.10473598 23.4627199-64.55917263 123.56193739-64.55917263 246.76742662 0 94.58474511-59.75759756 154.48911541-156.37619743 160.36003792-11.2805567 32.26910269-41.68354558 55.64795259-77.74777957 55.64795161-35.77068856 0-65.96400101-22.89659528-77.51713688-54.68344335-104.10402524-1.25805468-168.72610061-62.73499333-168.72610061-161.30357796 0-139.79084284-66.97044476-250.89803981-67.57850388-252.05125629a28.26429495 28.26429495 0 0 1 24.00787628-42.94160026h567.59233969a2.5790121 2.5790121 0 0 0 1.13224922 0 28.18042496 28.18042496 0 0 1 19.77242581 48.20446171z m-542.28447228 8.17735546c22.45627614 49.16897096 53.73990233 136.14248426 53.73990234 238.56910389 0 67.80914756 40.97064727 105.13143625 115.42651741 105.13143625h136.72957708c74.37199918 0 115.48942015-37.40615964 115.48942015-105.13143625 0-102.42661868 31.26265894-189.40013294 53.73990234-238.56910389h-475.12531932z m239.80619036-111.94589879a37.90938153 37.90938153 0 0 0-37.84647781 37.93034876h-56.36084993a94.31216594 94.31216594 0 0 1 94.20732774-94.22829595 94.35410143 94.35410143 0 0 1 94.24926419 94.22829595h-56.38181816a37.95131602 37.95131602 0 0 0-37.86744603-37.93034876z"  horiz-adv-x="1024" />

    
    <glyph glyph-name="radio-checked" unicode="&#59003;" d="M512 826.603467c-243.878426 0-441.670212-197.791785-441.670212-441.670212s197.684338-441.670212 441.670212-441.670211 441.670212 197.684338 441.670212 441.670211S755.878426 826.603467 512 826.603467z m0-827.758524c-213.260082 0-386.087289 172.827207-386.087289 386.088312S298.738895 771.020544 512 771.020544s386.087289-172.827207 386.087289-386.087289-172.827207-386.088312-386.087289-386.088312zM258.46668 384.933255c0-140.073222 113.460098-253.53332 253.53332-253.53332s253.53332 113.460098 253.53332 253.53332-113.461121 253.53332-253.53332 253.533321-253.53332-113.461121-253.53332-253.533321z"  horiz-adv-x="1024" />

    
    <glyph glyph-name="fushi" unicode="&#58988;" d="M708.319 758.889c1.441-0.079 2.882-0.351 6.693-0.89l8.034-1.099 7.967 1.517c1.457 0.278 2.939 0.408 4.424 0.408 8.934 0 17.722-4.453 23.861-12.005l139.581-242.539 1.509-2.089c9.518-13.162 8.429-30.883-2.378-38.696l-90.185-65.212c-2.277-1.647-5.035-2.724-8.435-3.299l-41.329-6.99v-323.471c0-27.348-22.25-49.598-49.598-49.598h-396.78c-27.348 0-49.598 22.25-49.598 49.598l-0 281.556v41.915l-41.329 6.99c-3.398 0.572-6.156 1.653-8.428 3.297l-90.191 65.215c-6.375 4.61-8.135 11.758-8.618 15.608-0.995 7.949 1.223 16.147 6.242 23.089l1.509 2.089 139.582 242.538c6.141 7.553 14.926 12.005 23.861 12.005 1.485 0 2.966-0.13 4.42-0.408l10.285-1.238 8.175 1.166c1.429 0.203 2.85 0.475 4.090 0.544h27.768c33.647-47.212 100.098-77.947 174.881-77.947s141.234 30.735 174.881 77.947l19.103 0M708.467 808.487h-48.947c-14.618-44.549-73.973-77.947-145.185-77.947-71.212 0-130.567 33.399-145.185 77.947h-57.466c-4.54 0-8.882-0.748-13.265-1.347-4.514 0.86-9.101 1.283-13.704 1.283-24.429 0-49.241-11.954-65.288-34.15l-139.856-243.021c-25.64-35.461-19.565-84.038 13.508-107.95l90.189-65.215c8.894-6.429 18.89-10.263 29.222-12.008v-281.557c0-54.557 44.639-99.195 99.195-99.195h396.782c54.56 0 99.195 44.639 99.195 99.195l-0 281.556c10.332 1.747 20.331 5.579 29.225 12.008l90.189 65.215c33.069 23.912 39.148 72.489 13.508 107.95l-139.856 243.022c-16.044 22.192-40.859 34.15-65.288 34.15-4.603 0-9.189-0.424-13.704-1.283-4.384 0.599-8.728 1.347-13.268 1.347v0z"  horiz-adv-x="1024" />

    
    <glyph glyph-name="tuijian" unicode="&#58887;" d="M1000.533333 79.644444s-96.581818-19.393939-194.456565-39.563636c-65.292929-72.662626-130.327273-145.19596-130.327273-145.19596L535.854545 133.818182c-7.886869-0.517172-15.773737-1.163636-23.789899-1.163637-8.016162 0-15.90303 0.646465-23.789899 1.163637L348.250505-104.985859s-65.034343 72.533333-130.327273 145.19596C120.048485 60.379798 23.466667 79.644444 23.466667 79.644444L175.644444 339.393939c-24.565657 49.131313-38.658586 104.210101-38.658585 162.521213C137.115152 706.068687 304.937374 871.434343 512.064646 871.434343s374.949495-165.365657 374.949495-369.389899c0-58.440404-14.092929-113.519192-38.658585-162.521212l152.177777-259.878788z m-317.543434-73.826262s46.933333 44.476768 90.892929 87.272727c62.448485 17.713131 125.543434 35.943434 125.543435 35.943434l-88.436364 150.884849C760.048485 213.333333 686.739394 164.460606 602.052525 143.90303l80.937374-138.084848zM124.573737 128.905051s63.094949-18.10101 125.543435-35.943435c44.088889-42.79596 90.892929-87.272727 90.892929-87.272727l80.937374 138.084848c-84.816162 20.686869-157.99596 69.430303-208.937374 136.016162L124.573737 128.905051zM512.064646 810.79596c-168.339394 0-304.872727-136.791919-304.872727-305.389899 0-168.727273 136.40404-305.389899 304.872727-305.389899 168.339394 0 304.872727 136.791919 304.872728 305.389899-0.129293 168.59798-136.533333 305.389899-304.872728 305.389899z m0-519.111112c-117.915152 0-213.591919 95.676768-213.591919 213.59192 0 117.915152 95.676768 213.591919 213.591919 213.591919s213.591919-95.676768 213.59192-213.591919c0-117.915152-95.676768-213.591919-213.59192-213.59192z m0 366.157576c-84.29899 0-152.565657-68.266667-152.565656-152.565656s68.266667-152.565657 152.565656-152.565657 152.565657 68.266667 152.565657 152.565657-68.39596 152.565657-152.565657 152.565656z"  horiz-adv-x="1024" />

    
    <glyph glyph-name="top" unicode="&#59085;" d="M96.29787022 175.83824591999996c21.12686459-21.12686459 55.30267497-21.12686459 75.80816119 0l338.65121184 338.65121186 338.65121186-338.65121186c21.12686459-21.12686459 55.30267497-21.12686459 75.80816119 0 21.12686459 21.12686459 21.12686459 55.30267497 0 75.80816119L548.66132385 628.2016995500001c-21.12686459 21.12686459-55.30267497 21.12686459-75.80816118 0L96.29787022 251.64640711000004c-10.5634323-10.5634323-15.53445925-24.23375645-15.53445925-37.90408059-0.62137837-13.67032415 4.97102697-27.3406483 15.53445925-37.9040806z"  horiz-adv-x="1024" />

    
    <glyph glyph-name="sortUp" unicode="&#58885;" d="M489.3 790.6L216.8 518.1c-12.3-12.3-12.3-32.5-1e-8-44.8l0.70000001-0.7c12.3-12.3 32.4-12.3 44.7 0l218.7 218.69999999L480.9 129.60000000000002c0-17.29999999 14.2-31.5 31.5-31.5s31.5 14.2 31.5 31.50000001l0 560.09999999L760.5 473.2c12.5-12.5 32.90000001-12.5 45.4 0s12.5 32.90000001 0 45.4l-271.1 271.1s-0.1 0.1-0.1 0.2l-0.69999999 0.7c-12.3 12.3-32.4 12.3-44.70000001 0zM512.6-30.39999998999997a31.8 31.7 90 1 1 0 63.59999999 31.8 31.7 90 1 1 0-63.59999999Z"  horiz-adv-x="1024" />

    
    <glyph glyph-name="speed" unicode="&#58901;" d="M919.551301 746.306502C774.554089 752.647237 639.950093 804.548436 522.609065 887.782747L511.906424 895.351204l-10.668954-7.568457C383.931377 804.548436 249.312409 752.647237 104.274023 746.306502H82.821328v-340.710323c0-251.331163 174.349001-473.691081 424.115566-531.421464l5.906541-0.925782 4.129837 0.945745c249.66176 57.700439 424.018247 280.070338 424.018248 531.39651V746.301511h-21.440219v0.004991z m-407.64363 85.16448c112.281665-76.873613 236.35021-115.888722 372.367833-126.752315v-327.467395C852.810137 6.224699999999984 514.928317-69.625811 509.417292-70.83980899999995v1.161595S170.919115 4.349429999999984 139.191734 378.429087v326.269617c2.041213 0.160951 4.088664 0.316912 6.126133 0.492835 133.809221 11.497417 255.926387 50.506287 366.589804 126.279443z m0 0M656.046476 415.990642h-105.619027l25.631192 207.959139-207.955395-271.946662h105.612789l-25.631192-207.954147L656.041486 415.990642h0.00499z m0 0"  horiz-adv-x="1024" />

    
    <glyph glyph-name="credit" unicode="&#58902;" d="M919.551301 746.306502C774.554089 752.647237 639.950093 804.548436 522.609065 887.782747L511.906424 895.351204l-10.668954-7.568457C383.931377 804.548436 249.312409 752.647237 104.274023 746.306502H82.821328v-340.710323c0-251.331163 174.349001-473.691081 424.115566-531.421464l5.906541-0.925782 4.129837 0.945745c249.66176 57.700439 424.018247 280.070338 424.018248 531.39651V746.301511h-21.440219v0.004991z m-407.64363 85.16448c112.281665-76.873613 236.35021-115.888722 372.367833-126.752315v-327.467395C852.810137 6.224699999999984 514.928317-69.625811 509.417292-70.83980899999995v1.161595S170.919115 4.349429999999984 139.191734 378.429087v326.269617c2.041213 0.160951 4.088664 0.316912 6.126133 0.492835 133.809221 11.497417 255.926387 50.506287 366.589804 126.279443z m0 0M753.07644 454.340735l-181.568106 3.8803-59.673028 180.422731-59.670534-180.422731-181.611775-3.8803 144.758905-115.403373-52.577444-182.815791 149.0996 109.11005 149.119563-109.11005-52.632342 182.814544 144.755161 115.40462z m0 0"  horiz-adv-x="1024" />

    
    <glyph glyph-name="real" unicode="&#58904;" d="M919.551301 746.306502C774.554089 752.647237 639.950093 804.548436 522.609065 887.782747L511.906424 895.351204l-10.668954-7.568457C383.931377 804.548436 249.312409 752.647237 104.274023 746.306502H82.821328v-340.710323c0-251.331163 174.349001-473.691081 424.115566-531.421464l5.906541-0.925782 4.129837 0.945745c249.66176 57.700439 424.018247 280.070338 424.018248 531.39651V746.301511h-21.440219v0.004991z m-407.64363 85.16448c112.281665-76.873613 236.35021-115.888722 372.367833-126.752315v-327.467395C852.810137 6.224699999999984 514.928317-69.625811 509.417292-70.83980899999995v1.161595S170.919115 4.349429999999984 139.191734 378.429087v326.269617c2.041213 0.160951 4.088664 0.316912 6.126133 0.492835 133.809221 11.497417 255.926387 50.506287 366.589804 126.279443z m0 0M274.484453 224.52340400000003h77.76446V480.24517h41.032615v-255.721766h121.180154V548.4673359999999H296.431231v37.213452h434.151945v-37.213452H555.490555v-124.999318h158.870221v-36.736836H555.490555v-162.209026h194.175962v-37.213451H274.484453v37.214699z m0 0"  horiz-adv-x="1024" />

    
    <glyph glyph-name="selected" unicode="&#58907;" d="M775.02051143 834a478.17143086 478.17143086 0 0 1-309.75653936-114.65907627L84.4097917 427.29227198C69.44890977 415.83513135 62 400.71890449 62 385.57806738c0-15.17159795 7.49197617-30.35396338 22.4097917-41.89262168l380.82957099-290.86125468c82.60092334-73.7523624 188.64368877-118.82265292 309.78114874-118.82265293 256.13607568 0 463.90268408 201.42203818 463.90268407 449.98000488C1238.9231955 632.5779618199999 1031.15658623 834 775.02051143 834z m0.35221904-727.31540479c-153.17869395 0-277.80297539 124.59813487-277.80297539 277.75990899 0 153.19868906 124.62274336 277.83681328 277.80297539 277.83681328 153.17869395 0 277.79220879-124.63812422 277.79220966-277.83681328 0-153.161775-124.61351484-277.75990987-277.79220966-277.75990899z"  horiz-adv-x="1339" />

    
    <glyph glyph-name="dot" unicode="&#58908;" d="M811.65964 700.622299c-174.283314 0-316.078052-141.810488-316.078052-316.116552 0-174.264064 141.792988-316.029053 316.078052-316.029052 174.283314 0 316.065802 141.764989 316.065803 316.029052 0 174.306064-141.782488 316.116552-316.065803 316.116552z"  horiz-adv-x="1339" />

    
    <glyph glyph-name="sortDown" unicode="&#59086;" d="M534.7-22.600000000000023L807.2 249.89999999999998c12.3 12.3 12.3 32.5 1e-8 44.8l-0.70000001 0.7c-12.3 12.3-32.4 12.3-44.7 0l-218.7-218.69999999L543.1 638.4c0 17.29999999-14.2 31.5-31.5 31.5s-31.5-14.2-31.5-31.50000001l0-560.09999999L263.5 294.79999999999995c-12.5 12.5-32.90000001 12.5-45.4 0s-12.5-32.90000001 0-45.4l271.1-271.1s0.1-0.1 0.1-0.2l0.69999999-0.7c12.3-12.3 32.4-12.3 44.70000001 0zM511.4 798.39999999a31.8 31.7 90 1 1 0-63.59999999 31.8 31.7 90 1 1 0 63.59999999Z"  horiz-adv-x="1024" />

    


  </font>
</defs>
</svg>
